<svg width="192" height="192" viewBox="0 0 192 192" fill="none" xmlns="http://www.w3.org/2000/svg">
<g clip-path="url(#clip0_66_476)">
<rect x="85.3125" y="45.425" width="19.6875" height="38.25" fill="#F0C270"/>
<rect x="105" y="45.425" width="14.0625" height="38.25" fill="#67A447"/>
<rect x="67.875" y="45.425" width="17.4375" height="23.0625" fill="#EC3F38"/>
<path d="M142.125 45.425H156.75V66.8L142.125 60.05V45.425Z" fill="#58A9B5"/>
<path d="M119.062 60.05H142.125L156.75 66.8V70.7375L142.125 64.2687H119.062V60.05Z" fill="#EC403E"/>
<path d="M142.125 66.2375L156.75 72.425V105.612H142.125V66.2375Z" fill="#58A9B5"/>
<rect x="119.062" y="45.425" width="23.0625" height="14.625" fill="#EC993C"/>
<rect x="117.938" y="65.1125" width="24.1875" height="16.875" fill="#F2C278"/>
<rect x="123" y="102.237" width="20.25" height="21.9375" fill="#67A447"/>
<rect x="36.375" y="79.7375" width="11.8125" height="25.3125" fill="#5E963B"/>
<rect x="36.375" y="67.925" width="12.375" height="14.625" fill="#F3453E"/>
<rect x="48.75" y="64.55" width="24.75" height="19.125" fill="#F1C375"/>
<rect x="36.375" y="43.7375" width="15.75" height="20.8125" fill="#67A447"/>
<rect x="52.125" y="43.7375" width="15.75" height="20.8125" fill="#EE9734"/>
<rect x="48.1875" y="79.7375" width="27" height="31.5" fill="#F2473D"/>
<path d="M36.375 105.612L40.0312 98.8625H56.0625V103.362V124.175H36.375V105.612Z" fill="#B83A32"/>
<rect x="51" y="112.362" width="16.3125" height="11.8125" fill="#204466"/>
<rect x="67.3125" y="94.3625" width="24.75" height="29.8125" fill="#F4C577"/>
<rect x="104.438" y="83.675" width="37.6875" height="18.5625" fill="#E43D37"/>
<rect x="143.25" y="105.612" width="13.5" height="18.5625" fill="#EC3F38"/>
<path d="M101.625 98.8625H123.562L123 124.175H105.281L101.625 98.8625Z" fill="#F09636"/>
<path d="M82.5 105.612L94.5938 102.237L101.625 98.8625H105.281V124.175H91.2188L82.5 105.612Z" fill="#EC4439"/>
<path d="M119.625 98.8625H123.281L127.5 105.612H124.125L119.625 98.8625Z" fill="#F5C370"/>
<path d="M115.125 98.8625H118.781L123 105.612H119.625L115.125 98.8625Z" fill="#F5C370"/>
<path d="M110.625 98.8625H114.281L118.5 105.612H115.125L110.625 98.8625Z" fill="#F5C370"/>
<path d="M106.125 98.8625H109.781L114 105.612H110.625L106.125 98.8625Z" fill="#F5C370"/>
<path d="M101.625 98.8625H105.281L109.5 105.612H106.125L101.625 98.8625Z" fill="#F5C370"/>
<path d="M123.342 45.425H119.527L115.125 49.925H118.647L123.342 45.425Z" fill="#F5C370"/>
<path d="M128.038 45.425H124.223L119.821 49.925H123.342L128.038 45.425Z" fill="#F5C370"/>
<path d="M132.733 45.425H128.918L124.516 49.925H128.038L132.733 45.425Z" fill="#F5C370"/>
<path d="M137.43 45.425H133.614L129.212 49.925H132.734L137.43 45.425Z" fill="#F5C370"/>
<path d="M142.125 45.425H138.31L133.908 49.925H137.429L142.125 45.425Z" fill="#F5C370"/>
<rect x="111.75" y="81.9875" width="30.375" height="1.6875" fill="#F38E3E"/>
<path d="M50.3936 109.55H67.3125V112.362H47.625L50.3936 109.55Z" fill="#F5C478"/>
</g>
<path d="M36.375 64.55H48.75V67.925H33.5625L36.375 64.55Z" fill="#58A9B5"/>
<path d="M142.125 64.2687L157.594 71.0187L158.438 73.2687L142.125 66.2375V64.2687Z" fill="#E3A14B"/>
<path d="M118.219 64.2687H142.125V66.2375H121.594L118.219 64.2687Z" fill="#E3A14B"/>
<path d="M40.4102 98.8625H37.2308L33.5623 105.612H36.4971L40.4102 98.8625Z" fill="#F5C370"/>
<path d="M44.3232 98.8625H41.1439L37.4754 105.612H40.4102L44.3232 98.8625Z" fill="#F5C370"/>
<path d="M48.2363 98.8625H45.057L41.3885 105.612H44.3233L48.2363 98.8625Z" fill="#F5C370"/>
<path d="M52.1494 98.8625H48.9701L45.3016 105.612H48.2364L52.1494 98.8625Z" fill="#F5C370"/>
<path d="M56.0625 98.8625H52.8832L49.2147 105.612H52.1495L56.0625 98.8625Z" fill="#F5C370"/>
<path d="M52.5654 79.625H49.2271L45.3752 86.375H48.4567L52.5654 79.625Z" fill="#F5C370"/>
<path d="M56.6738 79.625H53.3355L49.4836 86.375H52.5651L56.6738 79.625Z" fill="#F5C370"/>
<path d="M60.7827 79.625H57.4444L53.5925 86.375H56.674L60.7827 79.625Z" fill="#F5C370"/>
<path d="M64.8916 79.625H61.5533L57.7014 86.375H60.7829L64.8916 79.625Z" fill="#F5C370"/>
<path d="M69 79.625H65.6617L61.8098 86.375H64.8913L69 79.625Z" fill="#F5C370"/>
<path d="M38.4048 82.55H36.4177L34.1249 86.4875H35.9591L38.4048 82.55Z" fill="#F5C370"/>
<path d="M40.8506 82.55H38.8635L36.5707 86.4875H38.4049L40.8506 82.55Z" fill="#F5C370"/>
<path d="M43.2959 82.55H41.3088L39.016 86.4875H40.8502L43.2959 82.55Z" fill="#F5C370"/>
<path d="M45.7422 82.55H43.7551L41.4623 86.4875H43.2965L45.7422 82.55Z" fill="#F5C370"/>
<path d="M48.1875 82.55H46.2004L43.9076 86.4875H45.7418L48.1875 82.55Z" fill="#F5C370"/>
<rect x="127.5" y="89.75" width="4.5" height="6.1875" fill="#49ADBC"/>
<rect x="129.188" y="110.562" width="4.5" height="6.1875" fill="#F5C370"/>
<rect x="113.438" y="110.562" width="4.5" height="6.1875" fill="#F3453E"/>
<rect x="130.312" y="71.8625" width="4.5" height="10.125" fill="#49ADBC"/>
<rect x="115.688" y="89.1875" width="4.5" height="6.1875" fill="#49ADBC"/>
<rect x="96" y="112.25" width="4.5" height="6.1875" fill="#49ADBC"/>
<rect x="132.562" y="89.75" width="4.5" height="6.1875" fill="#F3BC6A"/>
<rect x="41.4375" y="109.438" width="5.0625" height="7.3125" fill="#F3BC6A"/>
<rect x="57.1875" y="115.625" width="4.5" height="5.0625" fill="#F3BC6A"/>
<rect x="75.1875" y="111.688" width="4.5" height="6.1875" fill="#204468"/>
<rect x="72.375" y="49.8125" width="4.5" height="6.1875" fill="#EC3F38"/>
<rect x="39.1875" y="88.0625" width="4.5" height="6.1875" fill="#EC3F38"/>
<rect x="49.875" y="87.5" width="5.0625" height="5.0625" fill="#F2C278"/>
<rect x="58.875" y="87.5" width="5.0625" height="5.0625" fill="#F2C278"/>
<rect x="58.875" y="95.375" width="5.0625" height="5.0625" fill="#F2C278"/>
<path d="M49.875 95.375H54.9375V98.8625H49.875V95.375Z" fill="#F2C278"/>
<rect x="74.0625" y="51.5" width="4.5" height="6.1875" fill="#1E4563"/>
<rect x="93.75" y="50.9375" width="4.5" height="6.1875" fill="#67A447"/>
<rect x="57.1875" y="53.1875" width="4.5" height="6.1875" fill="#EC3F38"/>
<rect x="41.4375" y="53.1875" width="4.5" height="6.1875" fill="#F5C370"/>
<rect x="40.3125" y="69.5" width="3.9375" height="5.0625" fill="#224C65"/>
<rect x="109.5" y="50.9375" width="5.0625" height="6.75" fill="#F3BC6A"/>
<rect x="130.312" y="50.9375" width="4.5" height="5.625" fill="#EC4439"/>
<rect x="124.688" y="50.9375" width="4.5" height="5.625" fill="#204468"/>
<path d="M146.625 50.375L151.125 52.0625V58.8125L146.625 57.125V50.375Z" fill="#F3BC6A"/>
<rect x="133.688" y="110.562" width="4.5" height="6.1875" fill="#204468"/>
<path d="M127.505 84.5213C127.505 101.764 113.527 115.743 96.2838 115.743C79.0408 115.743 65.0625 101.764 65.0625 84.5213C65.0625 67.2783 79.0408 53.3 96.2838 53.3C113.527 53.3 127.505 67.2783 127.505 84.5213ZM71.1584 84.5213C71.1584 98.3977 82.4075 109.647 96.2838 109.647C110.16 109.647 121.409 98.3977 121.409 84.5213C121.409 70.645 110.16 59.3959 96.2838 59.3959C82.4075 59.3959 71.1584 70.645 71.1584 84.5213Z" fill="#1E4563"/>
<circle cx="96.2841" cy="84.4795" r="25.6015" fill="#30B5D8"/>
<circle cx="96.2836" cy="84.4795" r="14.9862" fill="#1E4563"/>
<circle cx="91.2884" cy="79.4841" r="4.99541" fill="white"/>
<circle cx="84.75" cy="74.675" r="1.6875" fill="white"/>
<path d="M50.4375 41.2062L62.8125 40.0812V45.7062H50.4375V41.2062Z" fill="#EAAF5A"/>
<path d="M67.5938 42.3312L62.8125 38.675V40.0812L67.3125 43.4562L67.5938 42.3312Z" fill="#253945"/>
<path d="M49.3125 40.0812L62.8125 38.675V40.0812L49.3125 41.4875V40.0812Z" fill="#B55731"/>
<path d="M54.9375 41.6375L57.1875 41.4875V43.7375H54.9375V41.6375Z" fill="#3E8255"/>
<path d="M62.8125 40.0812L67.0312 43.175V45.7062H62.8125V40.0812Z" fill="#5591AD"/>
<path d="M82.9741 29.8957H98.3023V45.4902H78L82.9741 29.8957Z" fill="#F2C278"/>
<path d="M110.742 29.8957H98.3021V45.4902H114.779L110.742 29.8957Z" fill="#E43D37"/>
<path d="M81.375 29H111.75L112.312 30.125H80.8125L81.375 29Z" fill="#EE9734"/>
<rect x="102.421" y="33.4265" width="3.23659" height="3.82506" fill="#F2C278"/>
<rect x="88.2983" y="34.8977" width="4.1193" height="5.59048" fill="#204468"/>
<rect x="104.775" y="40.4882" width="3.53083" height="5.00201" fill="#204468"/>
<path d="M66.1875 44.75H106.688L109.5 48.6875H62.8125L66.1875 44.75Z" fill="#224C65"/>
<path d="M38.168 162.527C36.8672 162.527 35.6777 162.198 34.5996 161.542C33.5332 160.886 32.6836 160.007 32.0508 158.905C31.4297 157.792 31.1191 156.556 31.1191 155.196L31.1543 143.964C31.1543 142.628 31.459 141.421 32.0684 140.343C32.6777 139.253 33.5156 138.38 34.582 137.724C35.6602 137.056 36.8555 136.722 38.168 136.722C39.5039 136.722 40.6934 137.044 41.7363 137.689C42.791 138.333 43.6289 139.206 44.25 140.308C44.8828 141.398 45.1992 142.616 45.1992 143.964V145.616C45.1992 145.71 45.1523 145.757 45.0586 145.757H41.0156C40.9219 145.757 40.875 145.71 40.875 145.616V143.964C40.875 143.167 40.6172 142.482 40.1016 141.907C39.5859 141.333 38.9414 141.046 38.168 141.046C37.3125 141.046 36.6562 141.339 36.1992 141.925C35.7422 142.511 35.5137 143.191 35.5137 143.964V155.196C35.5137 156.075 35.7715 156.796 36.2871 157.359C36.8027 157.909 37.4297 158.185 38.168 158.185C38.9414 158.185 39.5859 157.88 40.1016 157.271C40.6172 156.65 40.875 155.958 40.875 155.196V153.527C40.875 153.433 40.9219 153.386 41.0156 153.386H45.0938C45.1875 153.386 45.2344 153.433 45.2344 153.527V155.196C45.2344 156.544 44.918 157.775 44.2852 158.888C43.6406 159.989 42.791 160.874 41.7363 161.542C40.6816 162.198 39.4922 162.527 38.168 162.527ZM59.6309 162.175H47.9941C47.9004 162.175 47.8535 162.116 47.8535 161.999L47.8887 137.302C47.8887 137.185 47.9473 137.126 48.0645 137.126H52.0723C52.1895 137.126 52.248 137.185 52.248 137.302L52.2129 157.745H59.6309C59.748 157.745 59.8066 157.804 59.8066 157.921V161.999C59.8066 162.116 59.748 162.175 59.6309 162.175ZM60.9492 161.999L65.4141 137.267C65.4375 137.173 65.4961 137.126 65.5898 137.126H70.8105C70.9043 137.126 70.9629 137.173 70.9863 137.267L75.2754 161.999C75.2871 162.116 75.2402 162.175 75.1348 162.175H71.1445C71.0273 162.175 70.9629 162.116 70.9512 161.999L70.5645 159.362H65.6602L65.2734 161.999C65.2617 162.116 65.2031 162.175 65.0977 162.175H61.0898C60.9961 162.175 60.9492 162.116 60.9492 161.999ZM67.998 145.405L66.3809 155.513H69.8438L68.3672 145.405L68.1562 144.07L67.998 145.405ZM84.1523 162.527C82.8516 162.527 81.6621 162.198 80.584 161.542C79.5176 160.886 78.668 160.007 78.0352 158.905C77.4141 157.792 77.1035 156.556 77.1035 155.196L77.1387 143.964C77.1387 142.628 77.4434 141.421 78.0527 140.343C78.6621 139.253 79.5 138.38 80.5664 137.724C81.6445 137.056 82.8398 136.722 84.1523 136.722C85.4883 136.722 86.6777 137.044 87.7207 137.689C88.7754 138.333 89.6133 139.206 90.2344 140.308C90.8672 141.398 91.1836 142.616 91.1836 143.964V145.616C91.1836 145.71 91.1367 145.757 91.043 145.757H87C86.9062 145.757 86.8594 145.71 86.8594 145.616V143.964C86.8594 143.167 86.6016 142.482 86.0859 141.907C85.5703 141.333 84.9258 141.046 84.1523 141.046C83.2969 141.046 82.6406 141.339 82.1836 141.925C81.7266 142.511 81.498 143.191 81.498 143.964V155.196C81.498 156.075 81.7559 156.796 82.2715 157.359C82.7871 157.909 83.4141 158.185 84.1523 158.185C84.9258 158.185 85.5703 157.88 86.0859 157.271C86.6016 156.65 86.8594 155.958 86.8594 155.196V153.527C86.8594 153.433 86.9062 153.386 87 153.386H91.0781C91.1719 153.386 91.2188 153.433 91.2188 153.527V155.196C91.2188 156.544 90.9023 157.775 90.2695 158.888C89.625 159.989 88.7754 160.874 87.7207 161.542C86.666 162.198 85.4766 162.527 84.1523 162.527ZM98.0566 162.175H93.9785C93.8848 162.175 93.8379 162.116 93.8379 161.999L93.9082 137.302C93.9082 137.185 93.9551 137.126 94.0488 137.126H98.0918C98.1855 137.126 98.2324 137.185 98.2324 137.302V145.827L103.875 137.267C103.969 137.173 104.057 137.126 104.139 137.126H108.27C108.375 137.126 108.398 137.173 108.34 137.267L102.117 147.198L109.096 162.034C109.154 162.128 109.096 162.175 108.92 162.175H104.525C104.408 162.175 104.338 162.128 104.314 162.034L99.4453 151.452L98.1973 153.421V161.999C98.1973 162.116 98.1504 162.175 98.0566 162.175ZM117.305 162.175H110.854C110.76 162.175 110.713 162.116 110.713 161.999L110.783 137.267C110.783 137.173 110.83 137.126 110.924 137.126H117.85C119.197 137.126 120.422 137.454 121.523 138.111C122.602 138.767 123.451 139.64 124.072 140.73C124.693 141.808 125.004 142.98 125.004 144.245C125.004 145.277 124.77 146.237 124.301 147.128C123.832 148.019 123.275 148.739 122.631 149.29C123.322 149.982 123.861 150.784 124.248 151.698C124.635 152.612 124.828 153.573 124.828 154.581C124.828 155.976 124.494 157.247 123.826 158.396C123.146 159.544 122.238 160.464 121.102 161.155C119.965 161.835 118.699 162.175 117.305 162.175ZM117.85 141.398H115.107V147.058H117.85C118.682 147.058 119.355 146.765 119.871 146.179C120.387 145.581 120.645 144.937 120.645 144.245C120.645 143.484 120.369 142.821 119.818 142.259C119.268 141.685 118.611 141.398 117.85 141.398ZM117.305 151.417H115.107L115.072 157.78H117.305C118.172 157.78 118.916 157.464 119.537 156.831C120.158 156.198 120.469 155.448 120.469 154.581C120.469 153.714 120.158 152.97 119.537 152.349C118.916 151.728 118.172 151.417 117.305 151.417ZM134.039 162.527C132.773 162.527 131.602 162.198 130.523 161.542C129.445 160.886 128.584 160.007 127.939 158.905C127.307 157.792 126.99 156.579 126.99 155.267L127.061 137.267C127.061 137.173 127.107 137.126 127.201 137.126H131.244C131.338 137.126 131.385 137.173 131.385 137.267V155.267C131.385 156.075 131.643 156.767 132.158 157.341C132.674 157.904 133.301 158.185 134.039 158.185C134.812 158.185 135.457 157.904 135.973 157.341C136.488 156.767 136.746 156.075 136.746 155.267V137.267C136.746 137.173 136.793 137.126 136.887 137.126H140.93C141.023 137.126 141.07 137.173 141.07 137.267L141.141 155.267C141.141 156.591 140.824 157.81 140.191 158.923C139.547 160.025 138.691 160.904 137.625 161.56C136.559 162.204 135.363 162.527 134.039 162.527ZM148.189 162.175H144.111C144.018 162.175 143.971 162.116 143.971 161.999L144.041 137.267C144.041 137.173 144.088 137.126 144.182 137.126H148.576C148.67 137.126 148.752 137.173 148.822 137.267L152.109 142.013L155.379 137.267C155.449 137.173 155.537 137.126 155.643 137.126H160.055C160.16 137.126 160.213 137.173 160.213 137.267L160.283 161.999C160.283 162.116 160.236 162.175 160.143 162.175H156.064C155.971 162.175 155.924 162.116 155.924 161.999L155.889 143.63L152.109 149.114L148.365 143.63L148.33 161.999C148.33 162.116 148.283 162.175 148.189 162.175Z" fill="#F5F5F5"/>
<defs>
<clipPath id="clip0_66_476">
<rect x="36.375" y="45.425" width="120.375" height="78.75" rx="11.25" fill="white"/>
</clipPath>
</defs>
</svg>
